# xmcd CD database file
# Copyright (C) 1993-1996 Ti Kan
#
# Track frame offsets:
#       183
#       11318
#       24748
#       35383
#       46243
#       60305
#       71278
#       85068
#       97198
#       109390
#       120115
#       134775
#       144418
#       156678
#       171973
#       182763
#       198968
#       211230
#
# Disc length: 2959 seconds
#
# Revision: 1
# Processed by: cddbd v1.4b41PL1 Copyright (c) Steve Scherf et al.
# Submitted via: CDValet v3.01 - Copyright (c) 1997 Greg Leichner
#
DISCID=f70b8d12
DTITLE=George Jones and Tammy Wynette - The Country Store Collection
DYEAR=1900
DGENRE=
TTITLE0=We're Not The Jet Set
TTITLE1=We're Gonna Hold On
TTITLE2=Take Me
TTITLE3=We Loved It Away
TTITLE4=The Ceremony
TTITLE5=A Pair Of Old Sneakers
TTITLE6=Golden Ring
TTITLE7=God's Gonna Getcha
TTITLE8=Two Storey House
TTITLE9=Near You
TTITLE10=When I Stop Dreaming
TTITLE11=Did You Ever
TTITLE12=Cryin' Time
TTITLE13=The World Needs A Melody
TTITLE14=Never Ending Song Of Love
TTITLE15=My Elusive Dreams
TTITLE16=We Could
TTITLE17=After The Fire Is Gone
EXTD=
EXTT0=
EXTT1=
EXTT2=
EXTT3=
EXTT4=
EXTT5=
EXTT6=
EXTT7=
EXTT8=
EXTT9=
EXTT10=
EXTT11=
EXTT12=
EXTT13=
EXTT14=
EXTT15=
EXTT16=
EXTT17=
PLAYORDER=
